<svg width="1791" height="1228" viewBox="0 0 1791 1228" fill="none" xmlns="http://www.w3.org/2000/svg">
<path d="M548 806C543.649 806 539.395 804.71 535.777 802.292C532.16 799.875 529.34 796.439 527.675 792.419C526.01 788.399 525.574 783.976 526.423 779.708C527.272 775.44 529.367 771.52 532.444 768.444C535.52 765.367 539.44 763.272 543.708 762.423C547.976 761.574 552.399 762.01 556.419 763.675C560.439 765.34 563.875 768.16 566.292 771.777C568.71 775.395 570 779.649 570 784C569.993 789.833 567.673 795.425 563.549 799.549C559.425 803.673 553.833 805.993 548 806ZM548 764C544.044 764 540.178 765.173 536.889 767.371C533.6 769.568 531.036 772.692 529.522 776.346C528.009 780.001 527.613 784.022 528.384 787.902C529.156 791.781 531.061 795.345 533.858 798.142C536.655 800.939 540.219 802.844 544.098 803.616C547.978 804.387 551.999 803.991 555.654 802.478C559.308 800.964 562.432 798.4 564.629 795.111C566.827 791.822 568 787.956 568 784C567.994 778.697 565.885 773.614 562.136 769.864C558.386 766.115 553.303 764.006 548 764Z" fill="#CFCFCF"/>
<path d="M1736.87 984L1652 935L1603 1019.87L1687.87 1068.87L1736.87 984Z" fill="#9CC8F4"/>
<path d="M70 1089C65.6488 1089 61.3954 1087.71 57.7775 1085.29C54.1596 1082.87 51.3398 1079.44 49.6747 1075.42C48.0095 1071.4 47.5739 1066.98 48.4227 1062.71C49.2716 1058.44 51.3669 1054.52 54.4437 1051.44C57.5204 1048.37 61.4404 1046.27 65.708 1045.42C69.9756 1044.57 74.3991 1045.01 78.419 1046.67C82.439 1048.34 85.8749 1051.16 88.2923 1054.78C90.7097 1058.4 92 1062.65 92 1067C91.9934 1072.83 89.6735 1078.42 85.5491 1082.55C81.4247 1086.67 75.8327 1088.99 70 1089ZM70 1047C66.0444 1047 62.1776 1048.17 58.8886 1050.37C55.5996 1052.57 53.0362 1055.69 51.5224 1059.35C50.0087 1063 49.6126 1067.02 50.3843 1070.9C51.156 1074.78 53.0608 1078.35 55.8579 1081.14C58.6549 1083.94 62.2186 1085.84 66.0982 1086.62C69.9778 1087.39 73.9991 1086.99 77.6537 1085.48C81.3082 1083.96 84.4318 1081.4 86.6294 1078.11C88.827 1074.82 90 1070.96 90 1067C89.9941 1061.7 87.8851 1056.61 84.1356 1052.86C80.3862 1049.11 75.3025 1047.01 70 1047Z" fill="#0774F2"/>
<path d="M1634.12 449L1517.14 579.56C1523.43 584.44 1528.65 590.562 1532.47 597.546C1536.29 604.529 1538.63 612.225 1539.35 620.153C1540.06 628.081 1539.14 636.072 1536.63 643.627C1534.13 651.183 1530.09 658.142 1524.78 664.071C1519.47 670 1512.99 674.771 1505.76 678.088C1498.52 681.406 1490.68 683.197 1482.72 683.352C1474.76 683.507 1466.86 682.021 1459.5 678.988C1452.14 675.955 1445.48 671.439 1439.94 665.721L1277 847.584C1323.98 884.095 1381.8 903.875 1441.3 903.786C1589.47 903.786 1709.58 783.675 1709.58 635.51C1709.67 565.886 1682.6 498.973 1634.12 449Z" fill="#9CC8F4"/>
<path d="M1483.58 663.363C1502.91 663.363 1518.58 647.693 1518.58 628.363C1518.58 609.033 1502.91 593.363 1483.58 593.363C1464.25 593.363 1448.58 609.033 1448.58 628.363C1448.58 647.693 1464.25 663.363 1483.58 663.363Z" fill="#9CC8F4"/>
<path d="M1474 20C1479.52 20 1484 15.5228 1484 10C1484 4.47715 1479.52 0 1474 0C1468.48 0 1464 4.47715 1464 10C1464 15.5228 1468.48 20 1474 20Z" fill="#0774F2"/>
<path d="M1506 1055C1511.52 1055 1516 1050.52 1516 1045C1516 1039.48 1511.52 1035 1506 1035C1500.48 1035 1496 1039.48 1496 1045C1496 1050.52 1500.48 1055 1506 1055Z" fill="#0774F2"/>
<path d="M137 267C142.523 267 147 262.523 147 257C147 251.477 142.523 247 137 247C131.477 247 127 251.477 127 257C127 262.523 131.477 267 137 267Z" fill="#0774F2"/>
<path d="M904 1089C909.523 1089 914 1084.52 914 1079C914 1073.48 909.523 1069 904 1069C898.477 1069 894 1073.48 894 1079C894 1084.52 898.477 1089 904 1089Z" fill="#0774F2"/>
<path d="M156 685C161.523 685 166 680.523 166 675C166 669.477 161.523 665 156 665C150.477 665 146 669.477 146 675C146 680.523 150.477 685 156 685Z" fill="#0774F2"/>
<path d="M663 904H637V878H663V904ZM639 902H661V880H639V902Z" fill="#CFCFCF"/>
<path d="M1175.04 1207.61L1155 1191.04L1171.57 1171L1191.61 1187.57L1175.04 1207.61ZM1157.82 1190.77L1174.77 1204.79L1188.79 1187.84L1171.84 1173.82L1157.82 1190.77Z" fill="#CFCFCF"/>
<path d="M1427 399C1424.63 399 1422.31 398.296 1420.33 396.978C1418.36 395.659 1416.82 393.785 1415.91 391.592C1415.01 389.399 1414.77 386.987 1415.23 384.659C1415.69 382.331 1416.84 380.193 1418.51 378.515C1420.19 376.836 1422.33 375.694 1424.66 375.231C1426.99 374.768 1429.4 375.005 1431.59 375.913C1433.78 376.822 1435.66 378.36 1436.98 380.333C1438.3 382.307 1439 384.627 1439 387C1439 390.182 1437.73 393.232 1435.48 395.481C1433.23 397.731 1430.18 398.996 1427 399ZM1427 377C1425.02 377 1423.09 377.586 1421.44 378.685C1419.8 379.784 1418.52 381.346 1417.76 383.173C1417 385 1416.81 387.011 1417.19 388.951C1417.58 390.891 1418.53 392.673 1419.93 394.071C1421.33 395.47 1423.11 396.422 1425.05 396.808C1426.99 397.194 1429 396.996 1430.83 396.239C1432.65 395.482 1434.22 394.2 1435.31 392.556C1436.41 390.911 1437 388.978 1437 387C1437 384.349 1435.94 381.807 1434.07 379.932C1432.19 378.058 1429.65 377.003 1427 377Z" fill="#0774F2"/>
<path opacity="0.1" d="M1737 222C1751.91 222 1764 209.912 1764 195C1764 180.088 1751.91 168 1737 168C1722.09 168 1710 180.088 1710 195C1710 209.912 1722.09 222 1737 222Z" fill="#ADADAD"/>
<path d="M70.1312 184.002L24.0021 160L-3.71933e-05 206.129L46.1291 230.131L70.1312 184.002Z" fill="#9CC8F4"/>
<path d="M574.967 1227.31L637.138 1129.54L497.904 1041L426 1154.08L541.164 1227.31H574.967Z" fill="#9CC8F4"/>
<path d="M1764 195C1778.91 195 1791 182.912 1791 168C1791 153.088 1778.91 141 1764 141C1749.09 141 1737 153.088 1737 168C1737 182.912 1749.09 195 1764 195Z" fill="#0774F2"/>
<path d="M1523.68 548.53L1529.86 551.142L1537.32 554.876C1537.32 554.876 1543.2 552.695 1541.88 550.974C1540.57 549.253 1538.57 550.885 1538.57 550.885L1534.82 548.719L1530.42 536.368L1523.68 548.53Z" fill="#3F3D56"/>
<path d="M1546.6 519.754L1562.19 528.381C1562.19 528.381 1565.43 527.271 1566.19 525.116C1566.96 522.962 1563.12 524.11 1563.12 524.11C1563.12 524.11 1555.99 516.144 1559.24 510.522C1562.49 504.899 1546.6 519.754 1546.6 519.754Z" fill="#3F3D56"/>
<path d="M1546.84 487.489C1546.84 487.489 1543.46 495.827 1537.14 500.443C1537.14 500.443 1525.74 510.198 1524.58 510.874C1523.42 511.549 1513.25 521.826 1509.16 528.405C1509.16 528.405 1482.7 533.408 1485.14 519.716C1485.14 519.716 1490.41 517.574 1489.98 515.496C1489.82 514.717 1489.05 514.357 1488.15 514.212C1487.16 514.07 1486.15 514.171 1485.2 514.508C1484.26 514.844 1483.41 515.405 1482.74 516.141C1479.68 519.363 1475.63 526.384 1488.9 533.254C1492.58 535.124 1496.63 536.162 1500.76 536.295C1503.83 536.418 1507.63 537.095 1508.97 539.547C1511.35 543.906 1516.49 548.991 1516.49 548.991L1519.26 559.342C1519.26 559.342 1525.3 569.181 1525.62 569.462C1525.94 569.742 1529.67 566.869 1529.59 565.598C1529.51 564.4 1526.83 564.872 1526.83 564.872C1526.83 564.872 1525.4 561.354 1526.73 558.562C1528.05 555.77 1531.15 547.751 1531.03 545.954C1530.92 544.156 1543.13 518.709 1553.59 517.738C1559.5 517.224 1565.37 516.346 1571.17 515.108C1571.17 515.108 1574.8 515.477 1576.49 513.565C1578.17 511.652 1575.58 508.81 1573.3 510.761C1571.02 512.712 1560.56 509.17 1560.56 509.17C1560.56 509.17 1553.98 505.08 1557.23 499.457C1559.02 496.358 1560.36 494.75 1561.2 493.931C1561.54 493.606 1561.81 493.216 1561.99 492.784C1562.18 492.353 1562.27 491.889 1562.27 491.42C1562.23 490.37 1562.07 489.328 1561.8 488.311C1561.74 488.049 1561.62 487.805 1561.44 487.601C1561.26 487.397 1561.04 487.238 1560.79 487.138C1559.26 486.543 1557.76 485.855 1556.31 485.078C1554.44 483.995 1550.92 485.423 1550.92 485.423C1550.92 485.423 1545.9 482.135 1546.33 484.213C1546.57 485.293 1546.74 486.388 1546.84 487.489V487.489Z" fill="#3F3D56"/>
</svg>
